<svg xmlns="http://www.w3.org/2000/svg" viewBox="0 0 782.3 600"><defs><style>.cls-1,.cls-2{fill:#025200;}.cls-2,.cls-3{stroke:#fff;stroke-miterlimit:10;}.cls-2{stroke-width:3px;}.cls-3{fill:#fff;}</style></defs><title>logo2</title><g id="Calque_5" data-name="Calque 5"><path class="cls-1" d="M35.27,369.17A96.79,96.79,0,0,1,19.9,358.11a4,4,0,0,1-1.52-3.33,4.91,4.91,0,0,1,2.39-4.09A10,10,0,0,1,26.61,349a10.7,10.7,0,0,1,6.06,1.67,4.69,4.69,0,0,1,0,8.18,9.71,9.71,0,0,1-6.06,1.82l-1.51-.15a81.72,81.72,0,0,0,10.82,7.12,92.73,92.73,0,0,0,18.19,7.57,79.28,79.28,0,0,0,24.25,3.49c13.21,0,24.69-2.58,34.87-7.73a94.93,94.93,0,0,0,27.06-20.45,191.62,191.62,0,0,0,22.09-29.09c6.71-10.76,13.21-22.12,19.71-33.79C189.23,274.48,197,261.61,205,249a189.49,189.49,0,0,1,27.07-33.78,106.19,106.19,0,0,1,35.08-23c-19.71-9.55-42-14.4-66.48-14.4-23,0-42.88,2.43-59.55,7.43q-25.34,7.5-41.58,19.09c-11,7.88-19,16.36-24.25,25.3-5.41,9.09-8,17.72-8,25.91A34.83,34.83,0,0,0,73,274.64c3.68,5.75,9.31,10.3,16.67,13.78,7.15,3.49,16,5.15,26.64,5.15,15.81,0,28.8-3.94,38.76-12,9.74-8,14.72-18.33,14.72-31.05h2.6q0,17-8.44,27.72a47.82,47.82,0,0,1-22.31,15.91,87.75,87.75,0,0,1-30.75,5.15c-13.2,0-24.25-1.82-33.34-5.61s-16-8.78-20.57-15A34.44,34.44,0,0,1,50,258.12c0-8.63,3-17.88,9.09-27.57,5.85-9.55,14.94-18.64,27.29-27s27.93-15,46.77-20.3,40.92-7.88,66.47-7.88a181.08,181.08,0,0,1,72.76,14.85c10.18-3.49,21.44-5.15,34-5.15l.43,1.66c-11.48,0-21.44,1.82-30.31,5.46,26.2,13.18,39.41,30.15,39.41,50.6,0,6.51-1.52,11.82-4.77,16.21-6.06,8-14.72,13.94-26,17.57a144.67,144.67,0,0,1-16.68,4.1l5,2.12a63.62,63.62,0,0,1,11.48,7.27,47.93,47.93,0,0,1,11.48,13A40.61,40.61,0,0,1,301.83,323c0,9.54-3.68,18.78-11.26,27.42S272.38,366.3,259,371.9s-28.8,8.33-46.13,8.33c-11.69-.15-21.22-2.42-28.58-6.51s-11-10.3-11-18.64q1.29-17.49,21.44-29.08c13.2-7.73,26.85-11.67,40.49-11.67V316a71,71,0,0,0-27.07,5.45c-9.09,3.79-16.67,8.48-22.74,14.39s-9.09,12.28-9.09,18.94c0,7.43,3.25,13.33,9.74,17.42,6.5,4.25,14.94,6.37,25.55,6.37,23.39,0,41.15-7,53.49-20.76,11-12.42,16.67-27.27,16.67-44.69,0-9.7-3.24-17.88-9.74-24.39a63.43,63.43,0,0,0-9.75-7.88l-8,.15c-19.49-.46-29.23-3-29.23-8,0-2.12,2.82-3.33,8.66-3.64a52.4,52.4,0,0,1,20.79,4.7l9.74,4.7,5.2-1.82a42.81,42.81,0,0,0,12.34-6.37c4.55-3.18,8.45-7.57,12.13-13.33,3.68-5.6,5.41-13,5.41-22.12-1.08-17.27-10.17-30.75-27.71-40.6-14.08,7.42-25.77,18.33-35.08,32.57a380.08,380.08,0,0,0-26.2,47c-5,10.3-10.4,20.6-15.81,30.76a225.65,225.65,0,0,1-18.84,28.78,133.51,133.51,0,0,1-23.82,24.09,106.29,106.29,0,0,1-31.4,16.67c-11.91,4.09-25.77,6.06-41.57,6.06A86.18,86.18,0,0,1,35.27,369.17ZM259.39,279l-1.95-.91c-7.79-3.48-14.29-5.3-19.05-5.3-1.95,0-2.82.3-3,1.06,0,.91,2,2,5.63,3.33s9.1,2,16.68,2Z"/><path class="cls-1" d="M517.1,373.11c-11.39-4.85-19.57-11.21-24.52-19.23a45.34,45.34,0,0,1-7.68-25.6c0-16.81,8.18-34.53,24.77-53.16-17.34,0-31.95-2-43.59-5.75-11.89-3.79-20.8-8.94-27-15.15s-9.17-13-9.17-20.14c0-6.81,2.73-13.78,8.42-20.75,5.45-7,13.87-13.32,25-19.08,11.14-5.6,25-10.3,41.85-13.78,16.6-3.48,36.16-5.15,58.45-5.15V177c-21.55,0-40.12,1.66-56,5-16.1,3.33-29.23,7.72-39.63,13.17-10.65,5.45-18.32,11.51-23.53,18-5.2,6.67-7.92,13.33-7.92,19.84,0,6.82,3,13.33,8.67,19.39s14.36,11,25.51,14.84,24.76,5.6,40.86,5.6c13.87-15.6,31.7-30.14,53.5-43.31a328.08,328.08,0,0,1,70.33-32.11Q673,185.18,708.3,185.17a108.67,108.67,0,0,1,15.85,1.06,33.27,33.27,0,0,1,12.63,4.09,9.84,9.84,0,0,1,5,8.78c-.49,8.33-7.68,16.81-21.3,25.74-13.87,8.94-31.45,17.12-53,24.84a491.81,491.81,0,0,1-68.6,18.93c-24.27,4.85-46.81,7.27-67.37,7.27a167,167,0,0,0-14.36,18.63,119.07,119.07,0,0,0-12.38,22.11,54.22,54.22,0,0,0-5.2,22.26,35,35,0,0,0,5.94,19.84c3.71,6.06,10.15,10.91,19.32,14.39s21.3,5.45,36.65,5.45A128.64,128.64,0,0,0,637,354.93c9.66-6.81,17.09-14.23,22.29-22.11s7.93-15.44,8.17-22.86c0-7.27-2.47-13-7.43-17.42s-12.13-6.36-21.54-6.36a97.41,97.41,0,0,0-48.05,14.54c-15.11,9.24-27.24,19.53-36.66,30.89-9.65,11.51-14.36,20.3-14.36,26.51h-2.48c0-7,5.2-16.36,15.36-28s23.28-22,39.13-31.05a107.81,107.81,0,0,1,50.77-14.54,79.16,79.16,0,0,1,19.07,2.27,33.56,33.56,0,0,1,15.11,7.73c3.71,3.63,5.69,8.48,5.69,14.69,0,6.36-3,13.63-8.91,21.66-6.19,8-14.61,15.9-25.26,23.32A153.24,153.24,0,0,1,609.73,373c-14.62,5-30.71,7.42-47.8,7.42C543.35,380.38,528.24,378,517.1,373.11Zm78.51-106.62a497.11,497.11,0,0,0,66.13-18.17c21-7.42,38.38-15.3,52.25-23.93,13.62-8.63,20.56-16.81,20.56-24.53q0-7.05-7.43-10c-5.2-2-11.14-2.88-18.33-2.88a194.89,194.89,0,0,0-67.36,11.82,257.21,257.21,0,0,0-59.69,31.35,274.22,274.22,0,0,0-48,42.85l-.49.61C551.77,273.61,572.58,271.19,595.61,266.49Z"/></g><g id="Calque_4" data-name="Calque 4"><polygon class="cls-2" points="413.24 302.84 414.49 304.24 415.43 307.36 418.4 309.64 419.43 311.41 420.41 313.29 420.41 315.16 421.73 316.25 422.33 317.86 422.33 319.6 423.23 320.71 423.23 322.81 423.99 323.88 423.99 325.71 424.57 327.7 423.84 330.3 424.57 331.52 424.57 333.05 424.57 335.04 424.57 337.17 424.31 339.19 423.94 341.24 422.62 342.38 423.15 344.43 422.58 346.29 421.74 348.57 420.02 349.72 420.52 351.34 419.42 353.48 418.47 355.11 415.89 356.9 415.71 359.11 414.29 360.84 413.24 362.41 411.95 363.36 410.43 364.8 408.7 366.27 405.95 367 405.41 368.7 403.82 369.71 402.13 369.71 401.01 371.28 398.45 372.48 395.66 373.57 392.37 374.57 390.05 374.57 389.11 375.3 386.7 375.67 384.09 375.67 382.1 376.01 379.95 375.99 378.27 375.1 375.95 375.68 374.44 375.48 372.38 375.1 369.87 374.5 367.86 373.91 366.16 373.32 364.84 372.81 363.6 371.13 361.15 369.9 358.78 369.77 357.07 368.68 355.64 366.54 353.13 365.71 351.18 363.97 350.45 361.34 348.19 360.81 346.05 358.1 344.81 356.33 343.43 354.08 341.96 351.28 341.96 348.34 340.32 347.39 339.62 345.33 338.88 342.63 338.37 340.18 338.03 338.01 338.03 335.65 337.7 333.67 338.52 331.06 337.82 328.92 338.14 326.09 338.68 323.11 340.05 320.97 339.64 319.46 340.13 317.99 340.74 316.36 341.57 314.39 342.5 312.49 343.74 310.25 345.86 308.74 347.24 307.06 347.69 304.63 349.27 302.84 351.82 301.55 353.22 299.07 354.98 297.66 357.02 297.66 358.24 296.81 358.55 295.23 360.25 294.24 362.62 293.03 365.05 291.97 367.42 291.97 369.31 290.51 370.78 290.51 372.77 290.51 374.34 289.4 377.36 288.85 379.35 289.78 381.95 288.86 384.09 290.08 386.55 289.17 389.91 289.71 392.36 290.28 393.26 291.61 396.07 291.44 398.33 292.33 399.22 294.06 402.04 294.12 404.12 295.28 405.49 297.12 407.84 297.9 409.62 299.41 411.15 301.86 413.24 302.84"/><circle class="cls-3" cx="360.95" cy="316.16" r="3.15"/><circle class="cls-3" cx="404.85" cy="326.27" r="3.83"/><circle class="cls-3" cx="379.63" cy="323.15" r="3.84"/><circle class="cls-3" cx="358.1" cy="340.62" r="2.85"/><circle class="cls-3" cx="390.05" cy="346.84" r="3.4"/><circle class="cls-3" cx="369.6" cy="352.59" r="2.35"/><circle class="cls-3" cx="388.48" cy="306.33" r="1.57"/></g></svg>