<svg xmlns="http://www.w3.org/2000/svg" viewBox="0 0 1024 520"><defs><style>.cls-1{fill:#025200;}.cls-1,.cls-3,.cls-4{stroke:#fff;stroke-miterlimit:10;}.cls-2,.cls-3{fill:#fff;}.cls-3,.cls-4{stroke-width:3px;}.cls-4{fill:none;}</style></defs><title>Plan de travail 1</title><g id="Calque_1" data-name="Calque 1"><rect class="cls-1" width="1024" height="520"/></g><g id="Calque_2" data-name="Calque 2"><path class="cls-2" d="M32.5,269.24a66.06,66.06,0,0,1-10-9.24,3.85,3.85,0,0,1-1-2.79,4.47,4.47,0,0,1,1.54-3.42,5.53,5.53,0,0,1,3.79-1.39,5.86,5.86,0,0,1,3.93,1.39,4.57,4.57,0,0,1,0,6.84,5.33,5.33,0,0,1-3.93,1.52l-1-.12a54.78,54.78,0,0,0,7,6,53.85,53.85,0,0,0,11.78,6.33,40.9,40.9,0,0,0,15.72,2.91A40.12,40.12,0,0,0,83,270.76a65.74,65.74,0,0,0,17.54-17.09,163.33,163.33,0,0,0,14.31-24.32c4.35-9,8.56-18.48,12.77-28.23,4.63-11,9.68-21.79,14.87-32.3A159,159,0,0,1,160,140.59a70.27,70.27,0,0,1,22.73-19.25,79.87,79.87,0,0,0-43.07-12c-14.87,0-27.78,2-38.59,6.2s-19.92,9.5-26.93,16a65.23,65.23,0,0,0-15.72,21.15,51.49,51.49,0,0,0-5.19,21.65,35.46,35.46,0,0,0,3.65,16,27.88,27.88,0,0,0,10.8,11.52c4.63,2.91,10.38,4.3,17.26,4.3,10.24,0,18.66-3.29,25.11-10s9.54-15.32,9.54-26h1.69q0,14.25-5.47,23.17a32.6,32.6,0,0,1-14.46,13.3,45.47,45.47,0,0,1-19.92,4.31c-8.56,0-15.71-1.52-21.61-4.69a32.43,32.43,0,0,1-13.32-12.54A34.5,34.5,0,0,1,42,176.42c0-7.22,2-14.94,5.89-23a70.12,70.12,0,0,1,17.68-22.55c8-7,18.1-12.53,30.3-17s26.52-6.59,43.08-6.59a95.23,95.23,0,0,1,47.14,12.41,53.8,53.8,0,0,1,22-4.3l.28,1.39a41.17,41.17,0,0,0-19.65,4.56c17,11,25.54,25.2,25.54,42.29,0,5.45-1,9.88-3.09,13.55a34.37,34.37,0,0,1-16.83,14.69,77.13,77.13,0,0,1-10.81,3.42l3.23,1.77a42.29,42.29,0,0,1,7.44,6.08A38.72,38.72,0,0,1,201.7,214a41.57,41.57,0,0,1,3.51,16.59,40.19,40.19,0,0,1-7.3,22.92c-4.91,7.35-11.78,13.3-20.48,18s-18.66,7-29.89,7c-7.57-.13-13.75-2-18.52-5.45s-7.15-8.61-7.15-15.57q.84-14.63,13.89-24.32c8.56-6.45,17.4-9.75,26.24-9.75v1.4a37.38,37.38,0,0,0-17.54,4.55,46.68,46.68,0,0,0-14.73,12,25.08,25.08,0,0,0-5.9,15.83c0,6.21,2.11,11.15,6.32,14.57s9.68,5.32,16.55,5.32c15.16,0,26.66-5.83,34.66-17.35,7.15-10.39,10.8-22.8,10.8-37.36,0-8.1-2.1-14.94-6.31-20.39a45.81,45.81,0,0,0-6.32-6.58l-5.19.12c-12.62-.38-18.94-2.53-18.94-6.71,0-1.77,1.83-2.78,5.61-3a27.71,27.71,0,0,1,13.47,3.93l6.32,3.92,3.36-1.51a26.21,26.21,0,0,0,8-5.32c3-2.66,5.47-6.34,7.86-11.15s3.51-10.89,3.51-18.49c-.71-14.43-6.6-25.7-18-33.93-9.12,6.2-16.7,15.32-22.73,27.22a351.9,351.9,0,0,0-17,39.26c-3.23,8.61-6.73,17.22-10.24,25.7a201.52,201.52,0,0,1-12.21,24.07A103.91,103.91,0,0,1,108,259.62a65.53,65.53,0,0,1-20.35,13.93c-7.71,3.42-16.69,5.07-26.93,5.07A46.39,46.39,0,0,1,32.5,269.24ZM177.71,193.9l-1.26-.76c-5-2.91-9.26-4.43-12.35-4.43-1.26,0-1.82.25-2,.88s1.26,1.65,3.64,2.79,5.9,1.64,10.81,1.64Z"/><path class="cls-2" d="M231.31,257.09a16.7,16.7,0,0,1-6.73-7.85,23.88,23.88,0,0,1-2.25-10.64,42.55,42.55,0,0,1,2.95-15.07A48.81,48.81,0,0,1,233.84,209a44.5,44.5,0,0,1,13-10.89,34.21,34.21,0,0,1,16.83-4.18c6.32,0,9.4,2.91,9.4,8.61,0,3.67-1.26,7.85-3.93,12.41a42.32,42.32,0,0,1-10,11.78,20.25,20.25,0,0,1-12.77,4.93,14.29,14.29,0,0,1-11.22-5.19,51.85,51.85,0,0,0-3.37,17c0,10,4.63,15.07,13.75,15.07a29.1,29.1,0,0,0,14.59-3.67c9-5.19,16-13.3,20.91-24.57l1.54.13c-1.82,5.06-5.19,10.38-10.1,16.08-7.86,9-17.68,13.55-29.32,13.55C238.33,260,234.4,259,231.31,257.09Zm27.22-31.53a40.79,40.79,0,0,0,9.4-11,26,26,0,0,0,3.79-11.78c0-5.06-2.67-7.6-8.14-7.6-6.87,0-13.47,4.94-19.78,14.69-4.21,6.59-6.88,11.65-7.86,15.2,3.37,3.42,6.88,5.19,10.66,5.19A18.51,18.51,0,0,0,258.53,225.56Z"/><path class="cls-2" d="M320.27,255.57a14.88,14.88,0,0,1-4.35-11.15,28.59,28.59,0,0,1,.7-5.82,92,92,0,0,1-6.74,10.64c-5.33,7.21-10.38,10.76-15,10.76A16.85,16.85,0,0,1,283.22,256c-2.94-2.66-4.49-6.71-4.49-11.91a51.21,51.21,0,0,1,2.81-15.45,68,68,0,0,1,7.72-16.33,52.56,52.56,0,0,1,12.06-13.17A26.06,26.06,0,0,1,317,193.9a11.2,11.2,0,0,1,6.73,1.77,10.27,10.27,0,0,1,3.51,4.43,14.33,14.33,0,0,1,1,5.32l-.42,3.67,6.74-15.19H347.2l-17.82,36.34c-3.5,7.22-5.33,13.55-5.33,18.74,0,6.21,3.09,9.37,9.12,9.5a13.43,13.43,0,0,0,9.68-4.31A46.86,46.86,0,0,0,351,243.41c2.39-4.3,4.63-8.74,6.6-13.17h1.68c-3.09,6.33-5.61,11.14-7.44,14.18C345.8,254.81,339.49,260,333,260,327.28,260,323.07,258.48,320.27,255.57Zm-16.7-1.4c4.63-4.55,9.12-11.14,13.47-19.5,1.4-2.78,4.49-10.13,9.4-22.16a29.84,29.84,0,0,0,.56-5.82,22.9,22.9,0,0,0-.7-5.19,9.29,9.29,0,0,0-2.53-4.56,8.29,8.29,0,0,0-5.61-1.78c-3.79,0-8,2.92-12.63,8.61a86.06,86.06,0,0,0-12.34,21A59.87,59.87,0,0,0,288,248.35a12.83,12.83,0,0,0,2,7.22,5.87,5.87,0,0,0,5.05,2.91C297.82,258.48,300.62,257.09,303.57,254.17Z"/><path class="cls-2" d="M373.86,249a25.68,25.68,0,0,1,2.95-11c2-4.06,4.21-8.24,6.6-12.41s4.63-8.23,6.45-12a24.37,24.37,0,0,0,2.81-10.13q0-9.12-16-9.12l-17.54,36h-1.54L375.27,194a12,12,0,0,1-5-1.39,5.33,5.33,0,0,1-2.81-5.06c0-1.65,1-2.92,2.81-4.06a10.68,10.68,0,0,1,5.33-1.52c3.22,0,5.05.51,5.19,1.52a8.17,8.17,0,0,1-1.26,3.42,10.08,10.08,0,0,0-1.41,4.31c0,.76.42,1.14,1.27,1.26,13.33,0,20.06,4.69,20.06,14.06a36.2,36.2,0,0,1-2.25,12c-1.54,4.43-3.36,8.74-5.19,13.17-4.07,9.5-6.17,16.08-6.17,19.88,0,4.69,2.81,7.09,8.56,7.09,6.17,0,11.92-4.81,17.4-14.43l7.15-14.06h1.55c-2.11,4.56-4.35,8.87-6.6,12.92-6.31,11.27-12.91,17-19.64,17C380.6,260.13,373.86,256.45,373.86,249Z"/><path class="cls-2" d="M450.61,249a35.64,35.64,0,0,1,2.95-12.91c2-4.94,4.07-9.75,6.45-14.69,2-4.18,3.79-8.11,5.33-11.78a24.28,24.28,0,0,0,2.25-9.12c0-3.54-2-5.32-5.89-5.32-4.35,0-10,3.8-16.7,11.27-2.67,2.92-5.75,6.72-9.26,11.28l-20.06,42-10.11.25L435,193.9h12.63l-7.58,15.32c2.53-2.91,4.91-5.45,7-7.6,5.34-5.19,10.25-7.72,14.46-7.72,9.4,0,14.17,3.54,14.17,10.63a33.67,33.67,0,0,1-3,12.67c-2,4.68-4.07,9.5-6.45,14.43-5.2,10.26-7.86,17.35-7.86,21.28,0,3.67,2.24,5.57,6.59,5.57q10.53,0,18.52-14.44c.42-.76,2.67-5.44,6.74-13.8H492l-2.1,4.31a84.4,84.4,0,0,1-9.54,16.71A19.81,19.81,0,0,1,464.92,260Q450.61,260,450.61,249Z"/><path class="cls-2" d="M581.52,272.54a34.24,34.24,0,0,1-13.89-16.09,51.52,51.52,0,0,1-4.35-21.4c0-14.05,4.63-28.87,14-44.44-9.82,0-18.1-1.65-24.7-4.82a36.92,36.92,0,0,1-15.29-12.66,29.59,29.59,0,0,1-5.19-16.84,35.53,35.53,0,0,1,4.77-17.35c3.09-5.83,7.86-11.14,14.17-16a77.4,77.4,0,0,1,23.71-11.52c9.4-2.91,20.49-4.31,33.11-4.31v1.4c-12.2,0-22.72,1.39-31.7,4.18s-16.56,6.45-22.45,11a46.87,46.87,0,0,0-13.33,15.07,35.47,35.47,0,0,0-4.49,16.59,29.82,29.82,0,0,0,4.91,16.21c3.23,5.19,8.14,9.24,14.45,12.41s14,4.69,23.15,4.69a157.48,157.48,0,0,1,30.31-36.22,166.48,166.48,0,0,1,39.84-26.85q21.25-10.26,41.25-10.25a42.41,42.41,0,0,1,9,.88,15.27,15.27,0,0,1,7.16,3.42c1.82,1.65,2.8,4.18,2.8,7.35-.28,7-4.35,14-12.06,21.52-7.86,7.47-17.82,14.31-30,20.77a212.85,212.85,0,0,1-38.86,15.83c-13.75,4.05-26.52,6.08-38.17,6.08a145.82,145.82,0,0,0-8.13,15.57,119.42,119.42,0,0,0-7,18.49,64.09,64.09,0,0,0-2.94,18.62,39.86,39.86,0,0,0,3.36,16.59,24.36,24.36,0,0,0,11,12c5.19,3,12.06,4.56,20.76,4.56a52.36,52.36,0,0,0,23.85-5.58,68.57,68.57,0,0,0,18.94-14.18,64.75,64.75,0,0,0,12.63-18.49,49.21,49.21,0,0,0,4.63-19.12c0-6.08-1.4-10.89-4.21-14.56s-6.87-5.32-12.2-5.32c-9.69.51-18.8,4.56-27.22,12.16a101.47,101.47,0,0,0-20.77,25.83c-5.47,9.62-8.14,17-8.14,22.16h-1.4c0-5.83,3-13.68,8.7-23.43a101.55,101.55,0,0,1,22.17-26c9-7.59,18.52-11.65,28.76-12.15a31.05,31.05,0,0,1,10.8,1.9,17.93,17.93,0,0,1,8.56,6.45c2.11,3,3.23,7.1,3.23,12.29s-1.68,11.39-5.05,18.11a84.13,84.13,0,0,1-14.31,19.5A80.52,80.52,0,0,1,634,272.41a59.46,59.46,0,0,1-27.08,6.21C596.39,278.62,587.83,276.59,581.52,272.54ZM626,183.39a215.57,215.57,0,0,0,37.47-15.2c11.92-6.2,21.74-12.79,29.6-20s11.64-14.05,11.64-20.51q0-5.9-4.2-8.36a20.78,20.78,0,0,0-10.39-2.4A79.5,79.5,0,0,0,652,126.78,139,139,0,0,0,618.14,153a197.14,197.14,0,0,0-27.22,35.83l-.28.51C601.16,189.34,613,187.31,626,183.39Z"/><path class="cls-2" d="M693.63,257.59a12.55,12.55,0,0,1-4.77-6.07,21.5,21.5,0,0,1-1.55-8.11c0-4.43,1.12-9.5,3.23-15.2a63.65,63.65,0,0,1,9.12-16.33,50.15,50.15,0,0,1,14-12.92,32.93,32.93,0,0,1,18-5.06c10.1,0,15.15,4.43,15.15,13.42,0,8.36-3.37,17.6-10.1,27.48A160.1,160.1,0,0,1,726.46,248c2.66,5.07,6.87,7.6,12.34,7.6,1.83,0,3.93-.76,6.6-2.28s5.47-4,8.42-7.73a71.33,71.33,0,0,0,8.84-15.32h1.68c-4.63,9.88-9.12,16.84-13.61,20.77s-8.42,6.08-11.93,6.08c-6.45,0-10.94-2.54-13.75-7.73a61.82,61.82,0,0,1-6.31,5.19A26.15,26.15,0,0,1,703,260C699,260,695.87,259.24,693.63,257.59ZM718.32,253a39.31,39.31,0,0,0,6-5.45,27.4,27.4,0,0,1-2.1-9.37c0-4.56,1.12-8.23,3.37-10.89s4.34-4.05,6.59-4.05a5.18,5.18,0,0,1,4.77,3l1,3,1.83-3.16q5.46-9.69,5.47-17.1a17.41,17.41,0,0,0-2.67-10c-1.82-2.66-5.47-3.93-10.94-3.93-3.93,0-8,1.9-12.21,5.58A65,65,0,0,0,707.8,215a88.93,88.93,0,0,0-8.56,18,51.59,51.59,0,0,0-3.37,17c0,5.69,2.53,8.48,7.58,8.48S713.27,256.71,718.32,253Zm18.24-21.28a13.11,13.11,0,0,0-1.12-4.3,4.09,4.09,0,0,0-3.79-2.28q-2.74,0-5,3.41a16.72,16.72,0,0,0-2.39,9.25,27.71,27.71,0,0,0,1.54,8.36A70.49,70.49,0,0,0,736.56,231.76Z"/><path class="cls-2" d="M766.3,257.59a12.66,12.66,0,0,1-4.77-6.07,21.69,21.69,0,0,1-1.54-8.11c0-4.43,1.12-9.5,3.23-15.2a63.65,63.65,0,0,1,9.12-16.33,50.15,50.15,0,0,1,14-12.92,32.93,32.93,0,0,1,18-5.06c10.1,0,15.15,4.43,15.15,13.42,0,8.36-3.37,17.6-10.1,27.48A160.1,160.1,0,0,1,799.14,248c2.66,5.07,6.87,7.6,12.34,7.6,1.83,0,3.93-.76,6.6-2.28s5.47-4,8.42-7.73a70.93,70.93,0,0,0,8.83-15.32H837c-4.63,9.88-9.12,16.84-13.61,20.77s-8.42,6.08-11.93,6.08c-6.45,0-10.94-2.54-13.75-7.73a61.82,61.82,0,0,1-6.31,5.19A26.15,26.15,0,0,1,775.7,260C771.64,260,768.55,259.24,766.3,257.59ZM791,253a39.31,39.31,0,0,0,6-5.45,27.4,27.4,0,0,1-2.1-9.37c0-4.56,1.12-8.23,3.36-10.89s4.35-4.05,6.6-4.05a5.18,5.18,0,0,1,4.77,3l1,3,1.82-3.16q5.47-9.69,5.48-17.1a17.48,17.48,0,0,0-2.67-10c-1.82-2.66-5.47-3.93-10.94-3.93-3.93,0-8,1.9-12.21,5.58A65.29,65.29,0,0,0,780.47,215a89.43,89.43,0,0,0-8.55,18,51.59,51.59,0,0,0-3.37,17c0,5.69,2.52,8.48,7.58,8.48S786,256.71,791,253Zm18.24-21.28a13.11,13.11,0,0,0-1.12-4.3,4.09,4.09,0,0,0-3.79-2.28q-2.75,0-5.05,3.41a16.72,16.72,0,0,0-2.39,9.25,27.71,27.71,0,0,0,1.54,8.36A70.86,70.86,0,0,0,809.24,231.76Z"/><path class="cls-2" d="M865.22,246.83c0-4.94,1.54-10.51,4.49-16.72,2.1-4.68,3.09-8.23,3.09-10.63,0-3.93-2.11-6.08-6.18-6.59a16,16,0,0,0,9.26-3.16,34.43,34.43,0,0,0,7.58-7c2-2.53,2.95-4.56,2.95-5.95,0-1.14-.71-1.65-2-1.65a24.55,24.55,0,0,0-15.85,6.08c-8.84,7.22-17.12,18.62-25,34.32-2.52,4.81-6.45,13-11.78,24.44h-9.12l44.61-105.61h13l-33.11,71.42c6.88-11.65,13.33-19.88,19.22-24.69s12.21-7.22,18.94-7.22a8.63,8.63,0,0,1,6,1.9,6.87,6.87,0,0,1,2,4.81,9,9,0,0,1-3.37,7.22,21,21,0,0,1-8.13,4.3,36.06,36.06,0,0,1-9.4,1.4,10.51,10.51,0,0,1,10.1,11,17.69,17.69,0,0,1-1.12,5.7q-6.74,16.14-6.74,22c0,4.17,2.25,6.2,6.59,6.2a13.68,13.68,0,0,0,9.55-4.05,42,42,0,0,0,7.57-9.75,128,128,0,0,0,6-11.53l1.55-2.91h1.54c-2.52,5.32-5.05,10.13-7.43,14.44C894.26,254.93,888,260,881.35,260,870.55,260,865.22,255.57,865.22,246.83Z"/><path class="cls-2" d="M907.17,255.31a17.14,17.14,0,0,1-4.07-11.65,36.67,36.67,0,0,1,2.95-13.42c7.44-18.74,12.63-30.77,15.29-36.34l12.49.12L916,230.24c-3.51,7.6-5.19,13.8-5.19,18.62,0,6.2,3.09,9.49,9.12,9.62,3.65,0,6.88-1.52,9.82-4.43a46.86,46.86,0,0,0,8-10.77c2.38-4.3,4.49-8.61,6.59-13H946c-3.09,6.33-5.61,11.14-7.44,14.18-6,10.39-12.35,15.58-18.8,15.58C914.05,260,909.84,258.48,907.17,255.31Zm21.89-71.8a3.65,3.65,0,0,1-1.82-3,3.7,3.7,0,0,1,1.82-3.16,8.57,8.57,0,0,1,9,0,3.7,3.7,0,0,1,1.82,3.16,3.65,3.65,0,0,1-1.82,3,7.9,7.9,0,0,1-9,0Z"/><path class="cls-2" d="M952.07,257.09a16.7,16.7,0,0,1-6.73-7.85,23.88,23.88,0,0,1-2.25-10.64A42.55,42.55,0,0,1,946,223.53,48.81,48.81,0,0,1,954.6,209a44.62,44.62,0,0,1,13-10.89,34.21,34.21,0,0,1,16.83-4.18c6.31,0,9.4,2.91,9.4,8.61,0,3.67-1.26,7.85-3.93,12.41a42.32,42.32,0,0,1-10,11.78,20.25,20.25,0,0,1-12.77,4.93A14.29,14.29,0,0,1,956,226.44a51.59,51.59,0,0,0-3.37,17c0,10,4.63,15.07,13.75,15.07A29.1,29.1,0,0,0,981,254.81c9-5.19,16-13.3,20.91-24.57l1.54.13c-1.82,5.06-5.19,10.38-10.1,16.08-7.86,9-17.68,13.55-29.32,13.55C959.09,260,955.16,259,952.07,257.09Zm27.22-31.53a40.79,40.79,0,0,0,9.4-11,26,26,0,0,0,3.79-11.78c0-5.06-2.67-7.6-8.14-7.6-6.87,0-13.47,4.94-19.78,14.69-4.21,6.59-6.88,11.65-7.86,15.2,3.37,3.42,6.88,5.19,10.66,5.19A18.51,18.51,0,0,0,979.29,225.56Z"/></g><g id="Calque_3" data-name="Calque 3"><polygon class="cls-3" points="537.3 344.49 538.55 345.9 539.5 349.01 542.47 351.29 543.5 353.06 544.48 354.94 544.48 356.81 545.79 357.9 546.4 359.51 546.4 361.25 547.3 362.36 547.3 364.46 548.06 365.53 548.06 367.36 548.64 369.36 547.91 371.95 548.64 373.17 548.64 374.7 548.64 376.69 548.64 378.82 548.38 380.85 548.01 382.89 546.69 384.03 547.22 386.09 546.65 387.94 545.81 390.23 544.09 391.37 544.59 392.99 543.49 395.13 542.53 396.76 539.96 398.56 539.78 400.76 538.36 402.5 537.3 404.06 536.02 405.01 534.5 406.45 532.77 407.92 530.02 408.65 529.48 410.36 527.89 411.37 526.2 411.37 525.08 412.93 522.52 414.13 519.73 415.22 516.43 416.23 514.12 416.23 513.18 416.95 510.77 417.32 508.15 417.32 506.17 417.66 504.02 417.64 502.34 416.75 500.02 417.34 498.51 417.13 496.45 416.75 493.94 416.15 491.93 415.56 490.23 414.97 488.9 414.46 487.67 412.78 485.22 411.55 482.85 411.42 481.14 410.33 479.71 408.19 477.19 407.36 475.25 405.62 474.51 402.99 472.25 402.46 470.11 399.76 468.88 397.98 467.5 395.73 466.03 392.94 466.03 389.99 464.38 389.05 463.69 386.99 462.95 384.29 462.43 381.83 462.1 379.66 462.1 377.3 461.76 375.32 462.59 372.71 461.89 370.57 462.2 367.75 462.75 364.77 464.12 362.62 463.71 361.12 464.2 359.64 464.81 358.01 465.64 356.05 466.56 354.15 467.81 351.9 469.93 350.39 471.3 348.71 471.76 346.28 473.34 344.49 475.89 343.2 477.29 340.72 479.05 339.31 481.09 339.31 482.31 338.46 482.62 336.88 484.32 335.89 486.69 334.68 489.12 333.62 491.49 333.62 493.38 332.16 494.85 332.16 496.84 332.16 498.41 331.05 501.43 330.5 503.41 331.43 506.02 330.51 508.15 331.74 510.62 330.83 513.98 331.37 516.43 331.94 517.33 333.27 520.14 333.09 522.4 333.98 523.29 335.71 526.11 335.77 528.18 336.94 529.56 338.77 531.91 339.56 533.69 341.06 535.22 343.51 537.3 344.49"/><circle class="cls-1" cx="486.59" cy="357.81" r="4.72"/><circle class="cls-1" cx="530.62" cy="369.95" r="5.53"/><circle class="cls-1" cx="501.36" cy="369.95" r="5.86"/><circle class="cls-1" cx="480.9" cy="383.55" r="4.12"/><circle class="cls-1" cx="519.05" cy="393.42" r="4.93"/><circle class="cls-1" cx="494.61" cy="395.19" r="3.29"/><circle class="cls-1" cx="514.12" cy="347.77" r="5.61"/></g><g id="Calque_4" data-name="Calque 4"><line class="cls-4" x1="615.39" y1="377.36" x2="841.34" y2="377.36"/><line class="cls-4" x1="163.77" y1="377.36" x2="389.72" y2="377.36"/></g></svg>