<svg xmlns="http://www.w3.org/2000/svg" viewBox="0 0 1013.26 518.43"><defs><style>.cls-1,.cls-2{fill:#fff;}.cls-2,.cls-3,.cls-4{stroke:#fff;stroke-miterlimit:10;}.cls-2,.cls-4{stroke-width:3px;}.cls-3{fill:#025200;}.cls-4{fill:none;}</style></defs><title>Plan de travail 9</title><g id="Calque_4" data-name="Calque 4"><path class="cls-1" d="M24.39,267.67a66.6,66.6,0,0,1-10-9.24,3.82,3.82,0,0,1-1-2.79A4.45,4.45,0,0,1,15,252.22a5.45,5.45,0,0,1,3.79-1.39,5.8,5.8,0,0,1,3.92,1.39,4.55,4.55,0,0,1,0,6.84,5.36,5.36,0,0,1-3.92,1.52l-1-.13a54,54,0,0,0,18.8,12.29,41.13,41.13,0,0,0,15.72,2.91,40.15,40.15,0,0,0,22.59-6.46,66.08,66.08,0,0,0,17.54-17.1,163.21,163.21,0,0,0,14.31-24.31c4.35-9,8.56-18.49,12.76-28.24,4.63-11,9.69-21.78,14.88-32.29A158.85,158.85,0,0,1,151.92,139a70.5,70.5,0,0,1,22.73-19.25,79.93,79.93,0,0,0-43.07-12c-14.87,0-27.78,2-38.58,6.21q-16.43,6.27-26.94,15.95A65.44,65.44,0,0,0,50.34,151a51.72,51.72,0,0,0-5.19,21.66,35.52,35.52,0,0,0,3.65,16,27.94,27.94,0,0,0,10.8,11.52c4.63,2.92,10.39,4.31,17.26,4.31,10.24,0,18.66-3.29,25.12-10,6.31-6.72,9.54-15.33,9.54-26h1.68q0,14.23-5.47,23.17A32.63,32.63,0,0,1,93.28,205a45.54,45.54,0,0,1-19.93,4.3c-8.55,0-15.71-1.52-21.6-4.68a32.53,32.53,0,0,1-13.33-12.54,34.53,34.53,0,0,1-4.49-17.22c0-7.22,2-14.94,5.89-23A70.09,70.09,0,0,1,57.5,129.26c8-7,18.1-12.54,30.31-17s26.51-6.58,43.07-6.58A95.21,95.21,0,0,1,178,118.12a53.67,53.67,0,0,1,22-4.31l.28,1.39a41.11,41.11,0,0,0-19.64,4.56c17,11,25.53,25.2,25.53,42.3,0,5.44-1,9.88-3.08,13.55A34.4,34.4,0,0,1,186.3,190.3a76.94,76.94,0,0,1-10.8,3.42l3.22,1.77a41.49,41.49,0,0,1,7.44,6.08,38.58,38.58,0,0,1,7.43,10.89,41.57,41.57,0,0,1,3.51,16.59A40.2,40.2,0,0,1,189.81,252c-4.91,7.34-11.79,13.29-20.49,18s-18.66,7-29.88,7c-7.58-.12-13.75-2-18.52-5.44s-7.16-8.61-7.16-15.58q.84-14.62,13.89-24.31c8.56-6.46,17.4-9.75,26.24-9.75v1.39a37.3,37.3,0,0,0-17.54,4.56,46.66,46.66,0,0,0-14.73,12,25.07,25.07,0,0,0-5.89,15.83c0,6.2,2.1,11.14,6.31,14.56s9.68,5.32,16.56,5.32c15.15,0,26.65-5.82,34.65-17.35,7.16-10.38,10.8-22.79,10.8-37.35,0-8.11-2.1-14.95-6.31-20.39a46.27,46.27,0,0,0-6.31-6.59l-5.19.13c-12.63-.38-19-2.53-19-6.71,0-1.77,1.83-2.79,5.62-3a27.8,27.8,0,0,1,13.47,3.92l6.31,3.93,3.37-1.52a26.3,26.3,0,0,0,8-5.32,36.43,36.43,0,0,0,7.86-11.14c2.39-4.69,3.51-10.89,3.51-18.49-.7-14.44-6.6-25.71-18-33.94-9.12,6.21-16.7,15.32-22.73,27.23a352.77,352.77,0,0,0-17,39.25c-3.22,8.62-6.73,17.23-10.24,25.71a202.06,202.06,0,0,1-12.2,24.06,103.72,103.72,0,0,1-15.44,20.14A65.6,65.6,0,0,1,79.53,272c-7.72,3.41-16.7,5.06-26.94,5.06A46.49,46.49,0,0,1,24.39,267.67ZM169.6,192.32l-1.26-.76c-5.05-2.91-9.26-4.43-12.35-4.43-1.26,0-1.82.25-2,.89s1.26,1.64,3.65,2.78,5.89,1.65,10.8,1.65Z"/><path class="cls-1" d="M223.2,255.51a16.76,16.76,0,0,1-6.73-7.85A24,24,0,0,1,214.22,237,42.72,42.72,0,0,1,217.17,222a49.07,49.07,0,0,1,8.56-14.57,45.07,45.07,0,0,1,13.05-10.89,34.32,34.32,0,0,1,16.83-4.18c6.32,0,9.4,2.92,9.4,8.61,0,3.68-1.26,7.86-3.92,12.41a42.38,42.38,0,0,1-10,11.78,20.22,20.22,0,0,1-12.76,4.94,14.31,14.31,0,0,1-11.23-5.19,51.81,51.81,0,0,0-3.36,17c0,10,4.63,15.07,13.75,15.07a29,29,0,0,0,14.59-3.68c9-5.19,16-13.29,20.9-24.56l1.55.12c-1.83,5.07-5.2,10.39-10.11,16.09-7.85,9-17.67,13.55-29.32,13.55A22.36,22.36,0,0,1,223.2,255.51ZM250.42,224a40.64,40.64,0,0,0,9.4-11,25.88,25.88,0,0,0,3.79-11.77c0-5.07-2.66-7.6-8.14-7.6-6.87,0-13.47,4.94-19.78,14.69-4.21,6.58-6.87,11.65-7.86,15.2,3.37,3.41,6.88,5.19,10.67,5.19A18.44,18.44,0,0,0,250.42,224Z"/><path class="cls-1" d="M312.16,254a14.86,14.86,0,0,1-4.35-11.14,28.68,28.68,0,0,1,.7-5.83,90.27,90.27,0,0,1-6.74,10.64c-5.33,7.22-10.38,10.77-15,10.77a16.81,16.81,0,0,1-11.64-4.06c-2.95-2.66-4.49-6.71-4.49-11.9a51.12,51.12,0,0,1,2.8-15.45,67.84,67.84,0,0,1,7.72-16.33,52.25,52.25,0,0,1,12.07-13.17,26,26,0,0,1,15.71-5.2,11.23,11.23,0,0,1,6.74,1.78,10.32,10.32,0,0,1,3.5,4.43,14.27,14.27,0,0,1,1,5.32l-.43,3.67,6.74-15.2H339.1l-17.82,36.35c-3.51,7.21-5.33,13.55-5.33,18.74,0,6.2,3.08,9.37,9.12,9.5a13.5,13.5,0,0,0,9.68-4.31,47.34,47.34,0,0,0,8.13-10.76c2.39-4.31,4.63-8.74,6.6-13.17h1.68c-3.08,6.33-5.61,11.14-7.43,14.18-6,10.38-12.35,15.58-18.8,15.58C319.17,258.43,315,256.91,312.16,254Zm-16.7-1.39c4.63-4.56,9.12-11.14,13.47-19.5,1.4-2.79,4.49-10.13,9.4-22.16a29.87,29.87,0,0,0,.56-5.83,23,23,0,0,0-.7-5.19,9.44,9.44,0,0,0-2.52-4.56,8.33,8.33,0,0,0-5.62-1.77c-3.79,0-8,2.91-12.62,8.61a86.33,86.33,0,0,0-12.35,21,59.88,59.88,0,0,0-5.19,23.56,12.79,12.79,0,0,0,2,7.21,5.88,5.88,0,0,0,5,2.92C289.71,256.91,292.52,255.51,295.46,252.6Z"/><path class="cls-1" d="M365.76,247.41a25.69,25.69,0,0,1,2.94-11c2-4,4.21-8.23,6.6-12.41s4.63-8.23,6.45-12a24.22,24.22,0,0,0,2.81-10.13q0-9.12-16-9.12l-17.54,36h-1.54l17.68-36.22a12.2,12.2,0,0,1-5.05-1.39A5.36,5.36,0,0,1,359.3,186c0-1.64,1-2.91,2.81-4.05a10.71,10.71,0,0,1,5.33-1.52c3.23,0,5.05.51,5.19,1.52a8.17,8.17,0,0,1-1.26,3.42,10.14,10.14,0,0,0-1.4,4.3c0,.76.42,1.14,1.26,1.27,13.33,0,20.06,4.69,20.06,14.06a36.46,36.46,0,0,1-2.24,12c-1.55,4.43-3.37,8.73-5.19,13.17-4.07,9.49-6.18,16.08-6.18,19.88,0,4.68,2.81,7.09,8.56,7.09,6.18,0,11.93-4.81,17.4-14.44l7.15-14.05h1.55c-2.11,4.56-4.35,8.86-6.6,12.91-6.31,11.27-12.9,17-19.64,17C372.49,258.55,365.76,254.88,365.76,247.41Z"/><path class="cls-1" d="M442.5,247.41a36,36,0,0,1,2.95-12.92c2-4.94,4.07-9.75,6.46-14.69,2-4.18,3.78-8.1,5.33-11.77a24.52,24.52,0,0,0,2.24-9.12q0-5.32-5.89-5.32c-4.35,0-10,3.8-16.7,11.27-2.66,2.91-5.75,6.71-9.26,11.27l-20.06,42-10.1.26,29.46-66.11h12.63L432,207.65c2.53-2.92,4.91-5.45,7-7.6,5.33-5.19,10.24-7.73,14.45-7.73,9.4,0,14.17,3.55,14.17,10.64a33.43,33.43,0,0,1-2.95,12.66c-2,4.69-4.07,9.5-6.45,14.44-5.19,10.26-7.86,17.35-7.86,21.27,0,3.68,2.25,5.58,6.6,5.58q10.52,0,18.52-14.44c.42-.76,2.66-5.45,6.73-13.8h1.68l-2.1,4.3a84.26,84.26,0,0,1-9.54,16.72,19.84,19.84,0,0,1-15.43,8.74Q442.51,258.43,442.5,247.41Z"/><path class="cls-1" d="M573.41,271a34.33,34.33,0,0,1-13.89-16.08,51.58,51.58,0,0,1-4.35-21.4c0-14.06,4.63-28.87,14-44.45-9.82,0-18.1-1.65-24.69-4.81a37,37,0,0,1-15.3-12.66A29.7,29.7,0,0,1,524,154.71a35.7,35.7,0,0,1,4.77-17.35c3.09-5.82,7.86-11.14,14.17-16a77.29,77.29,0,0,1,23.71-11.52c9.41-2.92,20.49-4.31,33.12-4.31V107c-12.21,0-22.73,1.4-31.71,4.18s-16.56,6.46-22.45,11a47,47,0,0,0-13.33,15.07,35.44,35.44,0,0,0-4.49,16.59A29.82,29.82,0,0,0,532.72,170c3.23,5.19,8.14,9.24,14.45,12.41s14,4.68,23.15,4.68a157.69,157.69,0,0,1,30.31-36.22,166.59,166.59,0,0,1,39.85-26.84q21.25-10.26,41.24-10.26a41.77,41.77,0,0,1,9,.89,15.13,15.13,0,0,1,7.16,3.42,9.55,9.55,0,0,1,2.81,7.34c-.28,7-4.35,14.06-12.07,21.53s-17.82,14.31-30,20.77a214.28,214.28,0,0,1-38.86,15.83c-13.75,4-26.52,6.07-38.16,6.07a147,147,0,0,0-8.14,15.58,119,119,0,0,0-7,18.49,64,64,0,0,0-2.94,18.61,39.7,39.7,0,0,0,3.37,16.59,24.26,24.26,0,0,0,10.94,12c5.19,3,12.07,4.56,20.76,4.56A52.55,52.55,0,0,0,622.38,270a69.06,69.06,0,0,0,18.94-14.18,65.05,65.05,0,0,0,12.62-18.49,49.3,49.3,0,0,0,4.63-19.12c0-6.08-1.4-10.89-4.2-14.57s-6.88-5.31-12.21-5.31c-9.68.5-18.8,4.55-27.22,12.15a102,102,0,0,0-20.77,25.83c-5.47,9.63-8.13,17-8.13,22.17h-1.41c0-5.83,3-13.68,8.7-23.43a101.55,101.55,0,0,1,22.17-26c9-7.6,18.52-11.65,28.76-12.16a31.38,31.38,0,0,1,10.81,1.9,18.11,18.11,0,0,1,8.56,6.46c2.1,3,3.22,7.09,3.22,12.28s-1.68,11.4-5.05,18.11a83.92,83.92,0,0,1-14.31,19.5,80.4,80.4,0,0,1-21.61,15.71A59.52,59.52,0,0,1,598.8,277C588.28,277,579.72,275,573.41,271Zm44.48-89.15a215.75,215.75,0,0,0,37.46-15.19c11.92-6.21,21.74-12.79,29.6-20s11.65-14.06,11.65-20.52q0-5.88-4.21-8.35A20.67,20.67,0,0,0,682,115.33a79.44,79.44,0,0,0-38.17,9.88A139.38,139.38,0,0,0,610,151.42a197.78,197.78,0,0,0-27.22,35.84l-.28.5C593.05,187.76,604.84,185.74,617.89,181.81Z"/><path class="cls-1" d="M685.52,256a12.57,12.57,0,0,1-4.77-6.08,21.6,21.6,0,0,1-1.55-8.1c0-4.44,1.13-9.5,3.23-15.2a63.78,63.78,0,0,1,9.12-16.33,50,50,0,0,1,14-12.92,33,33,0,0,1,18-5.07c10.1,0,15.15,4.44,15.15,13.43,0,8.35-3.36,17.6-10.1,27.48a159.58,159.58,0,0,1-10.24,13.17c2.66,5.06,6.87,7.59,12.35,7.59,1.82,0,3.92-.76,6.59-2.28s5.47-4.05,8.42-7.72a71.16,71.16,0,0,0,8.84-15.32h1.68c-4.63,9.87-9.12,16.84-13.61,20.76s-8.42,6.08-11.92,6.08c-6.46,0-11-2.53-13.75-7.72a63.13,63.13,0,0,1-6.32,5.19,26.21,26.21,0,0,1-15.71,5.45C690.85,258.43,687.76,257.67,685.52,256Zm24.69-4.56a39.28,39.28,0,0,0,6-5.44,27.26,27.26,0,0,1-2.11-9.38c0-4.55,1.12-8.23,3.37-10.89s4.35-4.05,6.59-4.05a5.19,5.19,0,0,1,4.77,3l1,3,1.83-3.16q5.48-9.69,5.47-17.1a17.36,17.36,0,0,0-2.67-10c-1.82-2.66-5.47-3.93-10.94-3.93-3.93,0-8,1.9-12.21,5.57a65.32,65.32,0,0,0-11.64,14.31,89.11,89.11,0,0,0-8.56,18,51.85,51.85,0,0,0-3.37,17c0,5.7,2.53,8.49,7.58,8.49S705.16,255.13,710.21,251.46Zm18.24-21.27a13.23,13.23,0,0,0-1.12-4.31,4.08,4.08,0,0,0-3.79-2.28c-1.82,0-3.51,1.14-5,3.42a16.79,16.79,0,0,0-2.39,9.24,27.69,27.69,0,0,0,1.55,8.36A70.64,70.64,0,0,0,728.45,230.19Z"/><path class="cls-1" d="M758.2,256a12.57,12.57,0,0,1-4.77-6.08,21.41,21.41,0,0,1-1.55-8.1c0-4.44,1.13-9.5,3.23-15.2a63.48,63.48,0,0,1,9.12-16.33,50,50,0,0,1,14-12.92,32.94,32.94,0,0,1,18-5.07c10.1,0,15.15,4.44,15.15,13.43,0,8.35-3.37,17.6-10.1,27.48A161.82,161.82,0,0,1,791,246.4c2.66,5.06,6.87,7.59,12.34,7.59,1.83,0,3.93-.76,6.6-2.28s5.47-4.05,8.42-7.72a71.58,71.58,0,0,0,8.84-15.32h1.68c-4.63,9.87-9.12,16.84-13.61,20.76s-8.42,6.08-11.93,6.08c-6.45,0-10.94-2.53-13.75-7.72a62.08,62.08,0,0,1-6.31,5.19,26.21,26.21,0,0,1-15.71,5.45C763.53,258.43,760.44,257.67,758.2,256Zm24.69-4.56a38.76,38.76,0,0,0,6-5.44,27.45,27.45,0,0,1-2.1-9.38c0-4.55,1.12-8.23,3.37-10.89,2.1-2.65,4.35-4.05,6.59-4.05a5.2,5.2,0,0,1,4.77,3l1,3,1.83-3.16q5.46-9.69,5.47-17.1a17.36,17.36,0,0,0-2.67-10c-1.82-2.66-5.47-3.93-10.94-3.93-3.93,0-8,1.9-12.21,5.57a65,65,0,0,0-11.64,14.31,89.11,89.11,0,0,0-8.56,18,51.59,51.59,0,0,0-3.37,17c0,5.7,2.53,8.49,7.58,8.49S777.84,255.13,782.89,251.46Zm18.24-21.27a13.23,13.23,0,0,0-1.12-4.31,4.08,4.08,0,0,0-3.79-2.28c-1.82,0-3.51,1.14-5.05,3.42a16.71,16.71,0,0,0-2.39,9.24,27.38,27.38,0,0,0,1.55,8.36A71,71,0,0,0,801.13,230.19Z"/><path class="cls-1" d="M857.11,245.26c0-4.94,1.55-10.51,4.49-16.72,2.11-4.68,3.09-8.23,3.09-10.64,0-3.92-2.11-6.07-6.17-6.58a16,16,0,0,0,9.26-3.17,34.09,34.09,0,0,0,7.57-7c2-2.53,2.95-4.56,2.95-5.95,0-1.14-.7-1.65-2-1.65a24.55,24.55,0,0,0-15.85,6.08c-8.84,7.22-17.12,18.61-25,34.32-2.53,4.81-6.46,13-11.79,24.44H814.6l44.62-105.62h13l-33.12,71.43c6.88-11.66,13.33-19.89,19.22-24.7s12.21-7.22,19-7.22a8.65,8.65,0,0,1,6,1.9,6.91,6.91,0,0,1,2,4.82,9,9,0,0,1-3.36,7.21,21.16,21.16,0,0,1-8.14,4.31,36.46,36.46,0,0,1-9.4,1.39,10.59,10.59,0,0,1,6.87,2.91,10.71,10.71,0,0,1,3.23,8.11,17.74,17.74,0,0,1-1.12,5.7q-6.74,16.14-6.74,22c0,4.18,2.25,6.21,6.6,6.21a13.68,13.68,0,0,0,9.54-4.06,41.75,41.75,0,0,0,7.57-9.75c2.25-3.8,4.21-7.6,6-11.52l1.54-2.91h1.54c-2.52,5.32-5.05,10.13-7.43,14.43-5.89,10.26-12.21,15.33-18.8,15.33C862.44,258.43,857.11,254,857.11,245.26Z"/><path class="cls-1" d="M899.07,253.74A17.11,17.11,0,0,1,895,242.09a36.64,36.64,0,0,1,2.94-13.42c7.44-18.74,12.63-30.77,15.3-36.35l12.48.13-17.81,36.22c-3.51,7.59-5.2,13.8-5.2,18.61,0,6.21,3.09,9.5,9.12,9.63,3.65,0,6.88-1.52,9.83-4.44a46.77,46.77,0,0,0,8-10.76c2.39-4.31,4.49-8.61,6.6-13h1.68c-3.09,6.33-5.61,11.14-7.44,14.18-6,10.38-12.34,15.58-18.8,15.58C905.94,258.43,901.73,256.91,899.07,253.74ZM921,181.94a3.66,3.66,0,0,1-1.82-3,3.7,3.7,0,0,1,1.82-3.17,8.63,8.63,0,0,1,9,0,3.69,3.69,0,0,1,1.83,3.17,3.65,3.65,0,0,1-1.83,3,7.95,7.95,0,0,1-9,0Z"/><path class="cls-1" d="M944,255.51a16.76,16.76,0,0,1-6.73-7.85A24,24,0,0,1,935,237,42.72,42.72,0,0,1,937.93,222a48.86,48.86,0,0,1,8.56-14.57,45.07,45.07,0,0,1,13-10.89,34.32,34.32,0,0,1,16.83-4.18c6.32,0,9.4,2.92,9.4,8.61,0,3.68-1.26,7.86-3.92,12.41a42.38,42.38,0,0,1-10,11.78,20.22,20.22,0,0,1-12.76,4.94,14.31,14.31,0,0,1-11.23-5.19,51.81,51.81,0,0,0-3.36,17c0,10,4.63,15.07,13.74,15.07a29,29,0,0,0,14.6-3.68c9-5.19,16-13.29,20.9-24.56l1.55.12c-1.83,5.07-5.2,10.39-10.11,16.09-7.85,9-17.67,13.55-29.32,13.55A22.36,22.36,0,0,1,944,255.51ZM971.18,224a40.64,40.64,0,0,0,9.4-11,25.88,25.88,0,0,0,3.79-11.77c0-5.07-2.66-7.6-8.14-7.6-6.87,0-13.47,4.94-19.78,14.69-4.21,6.58-6.87,11.65-7.86,15.2,3.37,3.41,6.88,5.19,10.67,5.19A18.44,18.44,0,0,0,971.18,224Z"/><polygon class="cls-2" points="529.2 342.91 530.45 344.32 531.39 347.44 534.36 349.72 535.39 351.49 536.37 353.36 536.37 355.24 537.69 356.33 538.29 357.94 538.29 359.67 539.2 360.78 539.2 362.88 539.95 363.95 539.95 365.79 540.54 367.78 539.8 370.38 540.54 371.6 540.54 373.13 540.54 375.12 540.54 377.25 540.27 379.27 539.9 381.32 538.58 382.46 539.12 384.51 538.54 386.37 537.7 388.65 535.98 389.8 536.49 391.42 535.38 393.56 534.43 395.19 531.85 396.98 531.67 399.19 530.25 400.92 529.2 402.49 527.91 403.44 526.39 404.88 524.67 406.35 521.91 407.07 521.37 408.78 519.78 409.79 518.09 409.79 516.98 411.36 514.41 412.56 511.62 413.64 508.33 414.65 506.01 414.65 505.07 415.38 502.66 415.75 500.05 415.75 498.06 416.08 495.91 416.06 494.24 415.18 491.91 415.76 490.4 415.55 488.34 415.18 485.83 414.58 483.82 413.98 482.12 413.4 480.8 412.88 479.56 411.2 477.11 409.98 474.74 409.85 473.03 408.76 471.61 406.62 469.09 405.79 467.14 404.05 466.41 401.42 464.15 400.88 462.01 398.18 460.77 396.41 459.39 394.15 457.92 391.36 457.92 388.42 456.28 387.47 455.58 385.41 454.84 382.71 454.33 380.26 453.99 378.09 453.99 375.73 453.66 373.74 454.48 371.14 453.78 368.99 454.1 366.17 454.64 363.19 456.01 361.05 455.6 359.54 456.09 358.07 456.7 356.43 457.54 354.47 458.46 352.57 459.7 350.33 461.82 348.82 463.2 347.13 463.65 344.71 465.23 342.91 467.78 341.63 469.18 339.15 470.94 337.74 472.98 337.74 474.2 336.89 474.51 335.31 476.21 334.32 478.58 333.11 481.01 332.04 483.38 332.04 485.27 330.59 486.74 330.59 488.73 330.59 490.3 329.48 493.32 328.93 495.31 329.86 497.91 328.94 500.05 330.16 502.51 329.25 505.87 329.79 508.32 330.36 509.22 331.69 512.03 331.52 514.29 332.4 515.18 334.14 518 334.2 520.08 335.36 521.45 337.2 523.8 337.98 525.58 339.49 527.11 341.94 529.2 342.91"/><circle class="cls-3" cx="478.48" cy="356.23" r="4.72"/><circle class="cls-3" cx="522.51" cy="368.37" r="5.53"/><circle class="cls-3" cx="493.26" cy="368.37" r="5.86"/><circle class="cls-3" cx="472.79" cy="381.97" r="4.12"/><circle class="cls-3" cx="510.94" cy="391.84" r="4.93"/><circle class="cls-3" cx="486.5" cy="393.61" r="3.29"/><circle class="cls-3" cx="506.01" cy="346.2" r="5.61"/><line class="cls-4" x1="607.29" y1="375.79" x2="833.23" y2="375.79"/><line class="cls-4" x1="155.66" y1="375.79" x2="381.61" y2="375.79"/></g></svg>