<svg xmlns="http://www.w3.org/2000/svg" viewBox="0 0 1024 518.81"><defs><style>.cls-1,.cls-2{fill:#025200;}.cls-2,.cls-3{stroke:#fff;}.cls-2,.cls-3,.cls-4{stroke-miterlimit:10;}.cls-2,.cls-4{stroke-width:3px;}.cls-3{fill:#fff;}.cls-4{fill:none;stroke:#025200;}</style></defs><title>Plan de travail 8</title><g id="Calque_2" data-name="Calque 2"><path class="cls-1" d="M24.88,268.65a66.66,66.66,0,0,1-10-9.25,3.81,3.81,0,0,1-1-2.78,4.47,4.47,0,0,1,1.54-3.42,5.45,5.45,0,0,1,3.79-1.39,5.85,5.85,0,0,1,3.93,1.39,4.57,4.57,0,0,1,0,6.84,5.4,5.4,0,0,1-3.93,1.52l-1-.13a53,53,0,0,0,7,5.95,53.74,53.74,0,0,0,11.79,6.33,40.89,40.89,0,0,0,15.71,2.92,40.21,40.21,0,0,0,22.59-6.46,65.93,65.93,0,0,0,17.54-17.1,163.72,163.72,0,0,0,14.31-24.31c4.35-9,8.56-18.49,12.77-28.24,4.63-11,9.68-21.78,14.87-32.29A158.3,158.3,0,0,1,152.42,140a70.29,70.29,0,0,1,22.73-19.25,79.88,79.88,0,0,0-43.08-12c-14.87,0-27.78,2-38.58,6.21s-19.92,9.49-26.94,16A65.26,65.26,0,0,0,50.84,152a51.58,51.58,0,0,0-5.2,21.65,35.54,35.54,0,0,0,3.65,16A28,28,0,0,0,60.1,201.15c4.63,2.92,10.38,4.31,17.25,4.31,10.25,0,18.66-3.29,25.12-10s9.54-15.32,9.54-26h1.68q0,14.25-5.47,23.18A32.63,32.63,0,0,1,93.77,206a45.5,45.5,0,0,1-19.92,4.3c-8.56,0-15.72-1.52-21.61-4.68a32.65,32.65,0,0,1-13.33-12.54,34.53,34.53,0,0,1-4.49-17.22c0-7.22,2-15,5.89-23.05A70,70,0,0,1,58,130.24c8-7,18.1-12.54,30.31-17s26.51-6.58,43.07-6.58a95.1,95.1,0,0,1,47.14,12.41,53.67,53.67,0,0,1,22-4.31l.28,1.39a41.13,41.13,0,0,0-19.64,4.56c17,11,25.53,25.2,25.53,42.3,0,5.44-1,9.87-3.08,13.55a34.35,34.35,0,0,1-16.84,14.69,75.37,75.37,0,0,1-10.8,3.41l3.23,1.78a41,41,0,0,1,7.43,6.08,38.45,38.45,0,0,1,7.44,10.89A41.88,41.88,0,0,1,197.6,230,40.21,40.21,0,0,1,190.3,253c-4.91,7.34-11.79,13.29-20.49,18s-18.66,7-29.88,7c-7.58-.12-13.75-2-18.52-5.44s-7.16-8.61-7.16-15.58q.84-14.62,13.89-24.31c8.56-6.46,17.4-9.75,26.24-9.75v1.39a37.33,37.33,0,0,0-17.54,4.56,46.52,46.52,0,0,0-14.73,12,25.07,25.07,0,0,0-5.89,15.83c0,6.2,2.1,11.14,6.31,14.56s9.68,5.32,16.56,5.32c15.15,0,26.66-5.83,34.65-17.35,7.16-10.38,10.81-22.79,10.81-37.36,0-8.1-2.11-14.94-6.32-20.38a45.74,45.74,0,0,0-6.31-6.59l-5.19.13c-12.63-.38-18.94-2.53-18.94-6.71,0-1.78,1.82-2.79,5.61-3a27.69,27.69,0,0,1,13.47,3.92l6.31,3.93,3.37-1.52a26.44,26.44,0,0,0,8-5.32,36.59,36.59,0,0,0,7.85-11.14c2.39-4.69,3.51-10.89,3.51-18.49-.7-14.44-6.59-25.71-18-33.94-9.12,6.21-16.69,15.32-22.73,27.23a352.78,352.78,0,0,0-17,39.25c-3.23,8.61-6.74,17.23-10.25,25.71a199.86,199.86,0,0,1-12.2,24.06A103,103,0,0,1,100.36,259,65.15,65.15,0,0,1,80,273C72.3,276.37,63.32,278,53.08,278A46.49,46.49,0,0,1,24.88,268.65ZM170.1,193.3l-1.27-.76c-5.05-2.91-9.26-4.43-12.34-4.43-1.27,0-1.83.25-2,.89s1.26,1.64,3.65,2.78,5.89,1.65,10.8,1.65Z"/><path class="cls-1" d="M223.7,256.49a16.72,16.72,0,0,1-6.74-7.85A24,24,0,0,1,214.72,238a42.79,42.79,0,0,1,2.94-15.07,49,49,0,0,1,8.56-14.56,45.07,45.07,0,0,1,13.05-10.89,34.22,34.22,0,0,1,16.84-4.18c6.31,0,9.4,2.91,9.4,8.61,0,3.68-1.27,7.85-3.93,12.41a42.34,42.34,0,0,1-10,11.78A20.26,20.26,0,0,1,238.85,231a14.27,14.27,0,0,1-11.22-5.19,51.58,51.58,0,0,0-3.37,17c0,10,4.63,15.08,13.75,15.08a29,29,0,0,0,14.59-3.68c9-5.19,16-13.29,20.9-24.56l1.55.12c-1.83,5.07-5.19,10.39-10.1,16.08-7.86,9-17.68,13.55-29.33,13.55C230.71,259.4,226.78,258.39,223.7,256.49ZM250.92,225a41.14,41.14,0,0,0,9.4-11,26,26,0,0,0,3.78-11.77c0-5.07-2.66-7.6-8.13-7.6-6.88,0-13.47,4.94-19.79,14.69-4.21,6.58-6.87,11.65-7.85,15.19,3.36,3.42,6.87,5.2,10.66,5.2A18.47,18.47,0,0,0,250.92,225Z"/><path class="cls-1" d="M312.65,255a14.86,14.86,0,0,1-4.35-11.14A28.68,28.68,0,0,1,309,238a91.18,91.18,0,0,1-6.73,10.64c-5.33,7.22-10.38,10.76-15,10.76s-8.7-1.39-11.65-4-4.49-6.71-4.49-11.9A50.85,50.85,0,0,1,273.93,228a68,68,0,0,1,7.71-16.34,52.59,52.59,0,0,1,12.07-13.17,26,26,0,0,1,15.71-5.19,11.31,11.31,0,0,1,6.74,1.77,10.39,10.39,0,0,1,3.51,4.44,14.26,14.26,0,0,1,1,5.32l-.42,3.67L327,193.3h12.63l-17.82,36.35c-3.51,7.21-5.33,13.55-5.33,18.74,0,6.2,3.08,9.37,9.12,9.5a13.48,13.48,0,0,0,9.68-4.31,47.22,47.22,0,0,0,8.14-10.77c2.38-4.3,4.63-8.73,6.59-13.16h1.68c-3.08,6.33-5.61,11.14-7.43,14.18-6,10.38-12.35,15.57-18.8,15.57C319.67,259.4,315.46,257.89,312.65,255ZM296,253.58c4.63-4.56,9.12-11.14,13.47-19.5,1.41-2.79,4.49-10.13,9.4-22.16a30,30,0,0,0,.56-5.83,23,23,0,0,0-.7-5.19,9.44,9.44,0,0,0-2.52-4.56,8.32,8.32,0,0,0-5.61-1.77c-3.79,0-8,2.91-12.63,8.61a86.14,86.14,0,0,0-12.35,21,59.87,59.87,0,0,0-5.19,23.55,12.8,12.8,0,0,0,2,7.22,5.89,5.89,0,0,0,5.05,2.92C290.2,257.89,293,256.49,296,253.58Z"/><path class="cls-1" d="M366.25,248.39a25.54,25.54,0,0,1,2.95-11c2-4.05,4.2-8.23,6.59-12.41s4.63-8.23,6.45-12a24.22,24.22,0,0,0,2.81-10.13q0-9.12-16-9.12l-17.53,36H350l17.68-36.22a12.2,12.2,0,0,1-5-1.39,5.35,5.35,0,0,1-2.8-5.07c0-1.65,1-2.91,2.8-4.05a10.64,10.64,0,0,1,5.33-1.52c3.23,0,5.05.5,5.19,1.52a8.17,8.17,0,0,1-1.26,3.42,10.14,10.14,0,0,0-1.4,4.3c0,.76.42,1.14,1.26,1.27,13.33,0,20.06,4.68,20.06,14.06a36.37,36.37,0,0,1-2.24,12c-1.54,4.44-3.37,8.74-5.19,13.17-4.07,9.5-6.17,16.09-6.17,19.89,0,4.68,2.8,7.09,8.55,7.09,6.18,0,11.93-4.81,17.4-14.44l7.16-14h1.54c-2.1,4.55-4.35,8.86-6.59,12.91-6.32,11.27-12.91,17-19.65,17C373,259.53,366.25,255.86,366.25,248.39Z"/><path class="cls-1" d="M443,248.39a35.91,35.91,0,0,1,2.94-12.92c2-4.94,4.07-9.75,6.46-14.69,2-4.18,3.79-8.1,5.33-11.78a24.43,24.43,0,0,0,2.24-9.11q0-5.32-5.89-5.32c-4.35,0-10,3.8-16.69,11.27-2.67,2.91-5.76,6.71-9.26,11.27l-20.07,42-10.1.25,29.46-66.1h12.63l-7.58,15.32c2.53-2.91,4.92-5.44,7-7.59,5.33-5.2,10.24-7.73,14.45-7.73,9.4,0,14.17,3.55,14.17,10.64a33.59,33.59,0,0,1-2.94,12.66c-2,4.69-4.07,9.5-6.46,14.44-5.19,10.26-7.86,17.35-7.86,21.27,0,3.67,2.25,5.58,6.6,5.58q10.51,0,18.52-14.44c.42-.76,2.66-5.45,6.73-13.8h1.69l-2.11,4.3a84.26,84.26,0,0,1-9.54,16.72,19.83,19.83,0,0,1-15.43,8.73Q443,259.4,443,248.39Z"/><path class="cls-1" d="M573.9,271.94A34.33,34.33,0,0,1,560,255.86a51.74,51.74,0,0,1-4.35-21.4c0-14.06,4.63-28.87,14-44.45-9.82,0-18.1-1.65-24.69-4.81a36.81,36.81,0,0,1-15.29-12.67,29.6,29.6,0,0,1-5.2-16.84,35.58,35.58,0,0,1,4.78-17.35c3.08-5.82,7.85-11.14,14.17-16a77.41,77.41,0,0,1,23.71-11.53c9.4-2.91,20.48-4.3,33.11-4.3V108c-12.21,0-22.73,1.39-31.71,4.18s-16.56,6.46-22.45,11a47,47,0,0,0-13.33,15.07,35.56,35.56,0,0,0-4.49,16.59,29.87,29.87,0,0,0,4.91,16.2c3.23,5.2,8.14,9.25,14.46,12.41s14,4.69,23.15,4.69a157.39,157.39,0,0,1,30.3-36.22A167,167,0,0,1,641,125.05q21.25-10.26,41.25-10.26a41.9,41.9,0,0,1,9,.89,15.14,15.14,0,0,1,7.15,3.42c1.83,1.64,2.81,4.17,2.81,7.34-.28,7-4.35,14.06-12.07,21.53s-17.82,14.31-30,20.76a213.24,213.24,0,0,1-38.87,15.83c-13.75,4.06-26.52,6.08-38.16,6.08a146,146,0,0,0-8.14,15.58,119,119,0,0,0-7,18.49,63.66,63.66,0,0,0-2.95,18.61,39.7,39.7,0,0,0,3.37,16.59,24.26,24.26,0,0,0,10.94,12c5.19,3,12.07,4.56,20.77,4.56a52.51,52.51,0,0,0,23.85-5.57,68.75,68.75,0,0,0,18.94-14.19,65.11,65.11,0,0,0,12.63-18.48,49.48,49.48,0,0,0,4.63-19.12c0-6.08-1.41-10.9-4.21-14.57s-6.88-5.32-12.21-5.32c-9.68.51-18.8,4.56-27.22,12.16a101.77,101.77,0,0,0-20.76,25.83c-5.47,9.63-8.14,17-8.14,22.16h-1.4c0-5.82,2.94-13.67,8.7-23.42A101.51,101.51,0,0,1,616,210c9-7.6,18.52-11.65,28.77-12.16a31.13,31.13,0,0,1,10.8,1.9,18.06,18.06,0,0,1,8.56,6.46c2.1,3,3.23,7.09,3.23,12.28s-1.69,11.4-5.06,18.11A83.35,83.35,0,0,1,648,256.11a80.26,80.26,0,0,1-21.6,15.7A59.46,59.46,0,0,1,599.3,278C588.77,278,580.22,276,573.9,271.94Zm44.48-89.15a215.43,215.43,0,0,0,37.46-15.19c11.93-6.21,21.75-12.79,29.6-20s11.65-14.06,11.65-20.52q0-5.88-4.21-8.35a20.64,20.64,0,0,0-10.38-2.41,79.38,79.38,0,0,0-38.16,9.88,139.23,139.23,0,0,0-33.82,26.21,197.78,197.78,0,0,0-27.22,35.84l-.28.5C593.55,188.74,605.33,186.72,618.38,182.79Z"/><path class="cls-1" d="M686,257a12.63,12.63,0,0,1-4.77-6.08,21.65,21.65,0,0,1-1.54-8.11c0-4.43,1.12-9.49,3.22-15.19A64.31,64.31,0,0,1,692,211.28a50.12,50.12,0,0,1,14-12.91,33,33,0,0,1,18-5.07c10.11,0,15.16,4.43,15.16,13.43,0,8.35-3.37,17.6-10.11,27.47a156.27,156.27,0,0,1-10.24,13.17c2.67,5.07,6.88,7.6,12.35,7.6,1.82,0,3.93-.76,6.59-2.28s5.48-4.05,8.42-7.72A71.16,71.16,0,0,0,755,229.65h1.68c-4.63,9.87-9.12,16.84-13.61,20.76s-8.41,6.08-11.92,6.08c-6.46,0-11-2.53-13.75-7.72a64.36,64.36,0,0,1-6.31,5.19,26.25,26.25,0,0,1-15.72,5.44C691.34,259.4,688.26,258.65,686,257Zm24.69-4.56a38.85,38.85,0,0,0,6-5.45,27.16,27.16,0,0,1-2.11-9.37c0-4.56,1.13-8.23,3.37-10.89s4.35-4,6.59-4a5.17,5.17,0,0,1,4.77,3l1,3,1.82-3.17q5.48-9.68,5.47-17.09a17.49,17.49,0,0,0-2.66-10c-1.83-2.66-5.47-3.92-11-3.92-3.93,0-8,1.9-12.2,5.57a65.35,65.35,0,0,0-11.65,14.31,89.65,89.65,0,0,0-8.56,18,51.81,51.81,0,0,0-3.36,17c0,5.7,2.52,8.49,7.57,8.49S705.65,256.11,710.7,252.44Zm18.24-21.28a13.24,13.24,0,0,0-1.12-4.3,4.07,4.07,0,0,0-3.79-2.28q-2.73,0-5,3.42a16.74,16.74,0,0,0-2.38,9.24,27.65,27.65,0,0,0,1.54,8.36A70.41,70.41,0,0,0,728.94,231.16Z"/><path class="cls-1" d="M758.69,257a12.57,12.57,0,0,1-4.77-6.08,21.65,21.65,0,0,1-1.54-8.11c0-4.43,1.12-9.49,3.22-15.19a64,64,0,0,1,9.12-16.34,50.12,50.12,0,0,1,14-12.91,33,33,0,0,1,18-5.07c10.1,0,15.15,4.43,15.15,13.43,0,8.35-3.36,17.6-10.1,27.47a156.27,156.27,0,0,1-10.24,13.17c2.67,5.07,6.88,7.6,12.35,7.6,1.82,0,3.93-.76,6.59-2.28s5.47-4.05,8.42-7.72a71.16,71.16,0,0,0,8.84-15.32h1.68c-4.63,9.87-9.12,16.84-13.61,20.76s-8.41,6.08-11.92,6.08c-6.46,0-11-2.53-13.75-7.72A63.13,63.13,0,0,1,783.8,254a26.2,26.2,0,0,1-15.71,5.44C764,259.4,760.93,258.65,758.69,257Zm24.69-4.56a38.85,38.85,0,0,0,6-5.45,27.16,27.16,0,0,1-2.11-9.37c0-4.56,1.12-8.23,3.37-10.89s4.35-4,6.59-4a5.17,5.17,0,0,1,4.77,3l1,3,1.82-3.17q5.48-9.68,5.47-17.09a17.49,17.49,0,0,0-2.66-10c-1.83-2.66-5.48-3.92-10.95-3.92-3.93,0-8,1.9-12.2,5.57a65.35,65.35,0,0,0-11.65,14.31,89.65,89.65,0,0,0-8.56,18,51.85,51.85,0,0,0-3.37,17c0,5.7,2.53,8.49,7.58,8.49S778.33,256.11,783.38,252.44Zm18.24-21.28a13.24,13.24,0,0,0-1.12-4.3,4.07,4.07,0,0,0-3.79-2.28c-1.82,0-3.51,1.14-5.05,3.42a16.74,16.74,0,0,0-2.38,9.24,27.65,27.65,0,0,0,1.54,8.36A70.41,70.41,0,0,0,801.62,231.16Z"/><path class="cls-1" d="M857.6,246.23c0-4.93,1.55-10.51,4.5-16.71,2.1-4.69,3.08-8.23,3.08-10.64,0-3.92-2.1-6.08-6.17-6.58a16,16,0,0,0,9.26-3.17,34.33,34.33,0,0,0,7.57-7c2-2.54,2.95-4.56,2.95-6,0-1.14-.7-1.64-2-1.64A24.51,24.51,0,0,0,861,200.65c-8.84,7.21-17.12,18.61-25,34.31-2.53,4.82-6.46,13-11.79,24.44h-9.12l44.62-105.61h13l-33.11,71.42c6.87-11.65,13.32-19.88,19.22-24.69s12.2-7.22,18.94-7.22a8.65,8.65,0,0,1,6,1.9,6.88,6.88,0,0,1,2,4.81,9.06,9.06,0,0,1-3.37,7.22,21.16,21.16,0,0,1-8.14,4.31,36.4,36.4,0,0,1-9.4,1.39,10.61,10.61,0,0,1,6.88,2.91A10.74,10.74,0,0,1,875,224a17.74,17.74,0,0,1-1.12,5.7q-6.74,16.14-6.73,22c0,4.18,2.24,6.21,6.59,6.21a13.67,13.67,0,0,0,9.54-4.06,41.78,41.78,0,0,0,7.58-9.75c2.24-3.8,4.21-7.6,6-11.52l1.54-2.91H900c-2.53,5.31-5.05,10.13-7.44,14.43-5.89,10.26-12.21,15.32-18.8,15.32C862.94,259.4,857.6,255,857.6,246.23Z"/><path class="cls-1" d="M899.56,254.72a17.13,17.13,0,0,1-4.07-11.65,36.42,36.42,0,0,1,3-13.42c7.43-18.75,12.62-30.78,15.29-36.35l12.49.13L908.4,229.65c-3.51,7.59-5.19,13.8-5.19,18.61,0,6.21,3.08,9.5,9.12,9.63,3.64,0,6.87-1.52,9.82-4.44a47,47,0,0,0,8-10.76c2.39-4.31,4.49-8.61,6.6-13h1.68c-3.08,6.33-5.61,11.14-7.43,14.18-6,10.38-12.35,15.57-18.8,15.57C906.43,259.4,902.22,257.89,899.56,254.72Zm21.89-71.8a3.65,3.65,0,0,1-1.83-3,3.69,3.69,0,0,1,1.83-3.17,8.63,8.63,0,0,1,9,0,3.7,3.7,0,0,1,1.82,3.17,3.66,3.66,0,0,1-1.82,3,7.95,7.95,0,0,1-9,0Z"/><path class="cls-1" d="M944.46,256.49a16.72,16.72,0,0,1-6.74-7.85A24,24,0,0,1,935.48,238a42.79,42.79,0,0,1,2.94-15.07A49,49,0,0,1,947,208.37a45.07,45.07,0,0,1,13-10.89,34.22,34.22,0,0,1,16.84-4.18c6.31,0,9.4,2.91,9.4,8.61,0,3.68-1.27,7.85-3.93,12.41a42.34,42.34,0,0,1-10,11.78A20.26,20.26,0,0,1,959.61,231a14.27,14.27,0,0,1-11.22-5.19,51.58,51.58,0,0,0-3.37,17c0,10,4.63,15.08,13.75,15.08a29,29,0,0,0,14.59-3.68c9-5.19,16-13.29,20.9-24.56l1.55.12c-1.83,5.07-5.19,10.39-10.1,16.08-7.86,9-17.68,13.55-29.33,13.55C951.47,259.4,947.54,258.39,944.46,256.49ZM971.68,225a41.14,41.14,0,0,0,9.4-11,26,26,0,0,0,3.78-11.77c0-5.07-2.66-7.6-8.13-7.6-6.88,0-13.47,4.94-19.79,14.69-4.21,6.58-6.87,11.65-7.85,15.19,3.36,3.42,6.87,5.2,10.66,5.2A18.47,18.47,0,0,0,971.68,225Z"/></g><g id="Calque_3_-_copie_7" data-name="Calque 3 - copie 7"><polygon class="cls-2" points="544.1 296.82 545.35 298.23 546.3 301.35 549.27 303.62 550.3 305.39 551.27 307.27 551.27 309.14 552.59 310.23 553.2 311.84 553.2 313.58 554.1 314.69 554.1 316.79 554.85 317.86 554.85 319.69 555.44 321.69 554.71 324.28 555.44 325.5 555.44 327.03 555.44 329.02 555.44 331.15 555.17 333.18 554.8 335.22 553.48 336.36 554.02 338.42 553.44 340.27 552.61 342.56 550.88 343.7 551.39 345.32 550.28 347.46 549.33 349.1 546.75 350.89 546.58 353.09 545.16 354.83 544.1 356.39 542.81 357.34 541.29 358.78 539.57 360.25 536.82 360.98 536.27 362.69 534.68 363.7 532.99 363.7 531.88 365.26 529.31 366.46 526.52 367.55 523.23 368.56 520.91 368.56 519.98 369.28 517.56 369.65 514.95 369.65 512.96 369.99 510.82 369.97 509.14 369.08 506.81 369.67 505.31 369.46 503.24 369.08 500.74 368.49 498.73 367.89 497.02 367.3 495.7 366.79 494.46 365.11 492.01 363.88 489.65 363.75 487.94 362.67 486.51 360.52 483.99 359.69 482.05 357.95 481.31 355.32 479.05 354.79 476.91 352.09 475.68 350.31 474.29 348.06 472.82 345.27 472.82 342.32 471.18 341.38 470.49 339.32 469.75 336.62 469.23 334.16 468.9 331.99 468.9 329.63 468.56 327.65 469.38 325.05 468.68 322.9 469 320.08 469.54 317.1 470.91 314.95 470.5 313.45 471 311.97 471.6 310.34 472.44 308.38 473.36 306.48 474.6 304.24 476.72 302.72 478.1 301.04 478.56 298.61 480.13 296.82 482.69 295.54 484.08 293.05 485.85 291.64 487.89 291.64 489.11 290.8 489.42 289.21 491.11 288.23 493.48 287.01 495.92 285.95 498.28 285.95 500.17 284.49 501.65 284.49 503.63 284.49 505.2 283.38 508.22 282.84 510.21 283.76 512.82 282.84 514.95 284.07 517.41 283.16 520.77 283.7 523.23 284.26 524.13 285.6 526.94 285.42 529.19 286.31 530.09 288.04 532.91 288.1 534.98 289.27 536.36 291.1 538.71 291.89 540.49 293.39 542.01 295.84 544.1 296.82"/><circle class="cls-3" cx="491.81" cy="310.14" r="3.15"/><circle class="cls-3" cx="535.71" cy="320.26" r="3.83"/><circle class="cls-3" cx="510.49" cy="317.13" r="3.84"/><circle class="cls-3" cx="488.96" cy="334.61" r="2.85"/><circle class="cls-3" cx="520.92" cy="340.82" r="3.4"/><circle class="cls-3" cx="500.46" cy="346.58" r="2.35"/><circle class="cls-3" cx="519.34" cy="300.31" r="1.57"/></g><g id="Calque_4" data-name="Calque 4"><line class="cls-4" x1="191.98" y1="327.12" x2="417.92" y2="327.12"/><line class="cls-4" x1="602.71" y1="327.12" x2="828.65" y2="327.12"/></g></svg>