<svg xmlns="http://www.w3.org/2000/svg" viewBox="0 0 800 600.01"><defs><style>.cls-1,.cls-2{fill:#025200;}.cls-1{stroke:#fff;}.cls-1,.cls-2,.cls-3{stroke-miterlimit:10;}.cls-2,.cls-3{stroke:#025200;}.cls-3,.cls-4{fill:#fff;}.cls-3{stroke-width:3px;}</style></defs><title>logo3</title><g id="Calque_10" data-name="Calque 10"><rect class="cls-1" x="2.49" width="800" height="600.01"/><g id="Calque_2_-_copie" data-name="Calque 2 - copie"><circle class="cls-2" cx="381.07" cy="372.8" r="3.83"/><polygon class="cls-3" points="427.39 317.46 428.64 318.87 429.59 321.99 432.56 324.27 433.59 326.04 434.56 327.91 434.56 329.79 435.88 330.88 436.49 332.49 436.49 334.22 437.39 335.33 437.39 337.43 438.14 338.5 438.14 340.34 438.73 342.33 438 344.93 438.73 346.15 438.73 347.68 438.73 349.67 438.73 351.8 438.46 353.82 438.09 355.87 436.77 357 437.31 359.06 436.74 360.92 435.9 363.2 434.17 364.35 434.68 365.97 433.57 368.11 432.62 369.74 430.05 371.53 429.87 373.73 428.45 375.47 427.39 377.04 426.1 377.99 424.58 379.43 422.86 380.9 420.11 381.62 419.56 383.33 417.98 384.34 416.28 384.34 415.17 385.9 412.61 387.11 409.81 388.19 406.52 389.2 404.2 389.2 403.27 389.93 400.85 390.3 398.24 390.3 396.25 390.63 394.11 390.61 392.43 389.73 390.11 390.31 388.6 390.1 386.53 389.73 384.03 389.13 382.02 388.53 380.31 387.95 378.99 387.43 377.75 385.75 375.31 384.53 372.94 384.4 371.23 383.31 369.8 381.16 367.28 380.33 365.34 378.59 364.6 375.96 362.34 375.43 360.2 372.73 358.97 370.95 357.58 368.7 356.11 365.91 356.11 362.97 354.47 362.02 353.78 359.96 353.04 357.26 352.52 354.81 352.19 352.63 352.19 350.28 351.85 348.29 352.68 345.69 351.97 343.54 352.29 340.72 352.83 337.74 354.2 335.6 353.79 334.09 354.29 332.61 354.89 330.98 355.73 329.02 356.65 327.12 357.89 324.88 360.01 323.37 361.39 321.68 361.85 319.26 363.43 317.46 365.98 316.18 367.37 313.7 369.14 312.29 371.18 312.29 372.4 311.44 372.71 309.85 374.4 308.87 376.77 307.66 379.21 306.59 381.57 306.59 383.46 305.14 384.94 305.14 386.93 305.14 388.49 304.03 391.51 303.48 393.5 304.4 396.11 303.49 398.24 304.71 400.7 303.8 404.06 304.34 406.52 304.91 407.42 306.24 410.23 306.07 412.48 306.95 413.38 308.69 416.2 308.75 418.27 309.91 419.65 311.75 422 312.53 423.78 314.04 425.31 316.49 427.39 317.46"/><circle class="cls-2" cx="390.77" cy="340.04" r="5.86"/><circle class="cls-2" cx="371.99" cy="328.93" r="5.25"/><circle class="cls-2" cx="408.93" cy="323.49" r="3.06"/><circle class="cls-2" cx="420.38" cy="345.91" r="4.96"/><circle class="cls-2" cx="372.95" cy="357.82" r="4.29"/><circle class="cls-2" cx="405.87" cy="366.62" r="3.4"/></g><g id="Calque_1" data-name="Calque 1"><path class="cls-4" d="M53.7,384.86A97,97,0,0,1,38.33,373.8a4,4,0,0,1-1.52-3.33,4.93,4.93,0,0,1,2.38-4.09A10,10,0,0,1,45,364.71a10.7,10.7,0,0,1,6.06,1.67,4.7,4.7,0,0,1,0,8.18A9.71,9.71,0,0,1,45,376.38l-1.52-.16a82.51,82.51,0,0,0,10.83,7.13,93.08,93.08,0,0,0,18.19,7.57,79.59,79.59,0,0,0,24.25,3.48c13.21,0,24.69-2.57,34.86-7.72a94.69,94.69,0,0,0,27.07-20.46,192.18,192.18,0,0,0,22.09-29.08c6.71-10.76,13.21-22.12,19.7-33.79,7.15-13.18,14.94-26.06,23-38.63a190,190,0,0,1,27.06-33.79,106.45,106.45,0,0,1,35.08-23c-19.7-9.54-42-14.39-66.47-14.39-23,0-42.88,2.42-59.55,7.42Q134.26,208.43,118,220c-11,7.88-19.05,16.37-24.25,25.3-5.41,9.09-8,17.73-8,25.91a34.83,34.83,0,0,0,5.63,19.09c3.68,5.76,9.31,10.3,16.67,13.79,7.15,3.48,16,5.15,26.64,5.15,15.8,0,28.8-3.94,38.76-12,9.74-8,14.72-18.33,14.72-31.06h2.6q0,17.06-8.45,27.73A47.86,47.86,0,0,1,160,309.87,87.75,87.75,0,0,1,129.27,315c-13.21,0-24.25-1.82-33.34-5.61s-16-8.79-20.58-15a34.45,34.45,0,0,1-6.92-20.6c0-8.64,3-17.88,9.09-27.58,5.85-9.54,14.94-18.63,27.28-27s27.94-15,46.78-20.31,40.92-7.87,66.47-7.87a181.28,181.28,0,0,1,72.76,14.84c10.18-3.48,21.44-5.15,34-5.15l.43,1.67c-11.48,0-21.44,1.82-30.32,5.45,26.21,13.18,39.41,30.15,39.41,50.61,0,6.51-1.51,11.81-4.76,16.21-6.06,8-14.72,13.93-26,17.57a144.18,144.18,0,0,1-16.67,4.09l5,2.12a64.18,64.18,0,0,1,11.48,7.27,48.08,48.08,0,0,1,11.48,13,40.75,40.75,0,0,1,5.41,19.85c0,9.55-3.68,18.79-11.26,27.42-7.58,8.79-18.19,15.91-31.62,21.52s-28.8,8.33-46.12,8.33c-11.69-.15-21.22-2.42-28.58-6.52s-11-10.3-11-18.63q1.29-17.5,21.43-29.09C226.28,334,239.92,330,253.56,330v1.66a71,71,0,0,0-27.06,5.46c-9.1,3.78-16.68,8.48-22.74,14.39s-9.09,12.27-9.09,18.94c0,7.42,3.25,13.33,9.74,17.42,6.5,4.24,14.94,6.36,25.55,6.36,23.39,0,41.14-7,53.49-20.75,11-12.43,16.67-27.27,16.67-44.7,0-9.69-3.25-17.87-9.74-24.39a64.64,64.64,0,0,0-9.75-7.88l-8,.15c-19.49-.45-29.23-3-29.23-8,0-2.12,2.81-3.33,8.66-3.63a52.26,52.26,0,0,1,20.79,4.7l9.74,4.69,5.2-1.82a43.13,43.13,0,0,0,12.34-6.36c4.55-3.18,8.45-7.57,12.13-13.33,3.68-5.61,5.41-13,5.41-22.12-1.08-17.27-10.18-30.76-27.72-40.6-14.07,7.42-25.76,18.33-35.08,32.57a381.39,381.39,0,0,0-26.2,47c-5,10.3-10.39,20.6-15.8,30.75A225.76,225.76,0,0,1,194,349.26a133.51,133.51,0,0,1-23.82,24.09A106.16,106.16,0,0,1,138.8,390c-11.91,4.09-25.77,6.06-41.57,6.06A86.25,86.25,0,0,1,53.7,384.86Zm224.12-90.14-1.95-.91c-7.8-3.49-14.29-5.31-19.06-5.31-1.95,0-2.81.31-3,1.06,0,.91,1.95,2,5.63,3.34s9.1,2,16.67,2Z"/><path class="cls-4" d="M530.43,388.79c-11.39-4.84-19.56-11.2-24.51-19.23A45.23,45.23,0,0,1,498.24,344c0-16.81,8.17-34.53,24.76-53.16-17.33,0-31.94-2-43.58-5.76-11.89-3.78-20.81-8.93-27-15.14s-9.16-13-9.16-20.14c0-6.82,2.72-13.78,8.42-20.75,5.45-7,13.87-13.33,25-19.08,11.15-5.6,25-10.3,41.86-13.78C535.14,192.67,554.71,191,577,191v1.66c-21.55,0-40.13,1.67-56,5-16.1,3.33-29.22,7.73-39.62,13.18-10.65,5.45-18.33,11.51-23.53,18-5.2,6.66-7.93,13.33-7.93,19.84,0,6.81,3,13.33,8.67,19.38,5.7,6.21,14.37,11.06,25.51,14.84s24.77,5.61,40.87,5.61c13.86-15.6,31.7-30.14,53.49-43.32a328.84,328.84,0,0,1,70.34-32.1q37.51-12.27,72.81-12.27a110.09,110.09,0,0,1,15.85,1.06A33.45,33.45,0,0,1,750.11,206a9.87,9.87,0,0,1,5,8.79c-.5,8.32-7.68,16.81-21.3,25.74-13.87,8.94-31.46,17.11-53,24.84a493.33,493.33,0,0,1-68.61,18.93c-24.27,4.84-46.81,7.27-67.36,7.27a166.61,166.61,0,0,0-14.37,18.62,119.07,119.07,0,0,0-12.38,22.11,54.3,54.3,0,0,0-5.2,22.27,35,35,0,0,0,5.94,19.84c3.72,6,10.16,10.9,19.32,14.38,9.17,3.64,21.3,5.46,36.66,5.46a128.76,128.76,0,0,0,75.53-23.63c9.66-6.81,17.09-14.23,22.29-22.11s7.93-15.45,8.18-22.87c0-7.27-2.48-13-7.43-17.41s-12.14-6.36-21.55-6.36a97.5,97.5,0,0,0-48,14.53c-15.1,9.24-27.24,19.54-36.65,30.9-9.66,11.51-14.37,20.29-14.37,26.5h-2.47c0-7,5.2-16.35,15.35-28s23.28-22,39.13-31A107.61,107.61,0,0,1,655.5,300.2a79.31,79.31,0,0,1,19.08,2.27,33.61,33.61,0,0,1,15.1,7.72c3.72,3.64,5.7,8.49,5.7,14.7,0,6.36-3,13.62-8.92,21.65-6.19,8-14.61,15.9-25.26,23.32a152.9,152.9,0,0,1-38.14,18.78c-14.61,5-30.71,7.42-47.8,7.42C556.69,396.06,541.58,393.64,530.43,388.79Zm78.51-106.61A496.7,496.7,0,0,0,675.07,264c21-7.42,38.39-15.29,52.26-23.92,13.62-8.64,20.55-16.81,20.55-24.54q0-7-7.43-10c-5.2-2-11.14-2.88-18.32-2.88a195.21,195.21,0,0,0-67.37,11.81,257.7,257.7,0,0,0-59.68,31.35A273.91,273.91,0,0,0,547,288.69l-.5.61C565.11,289.3,585.91,286.87,608.94,282.18Z"/></g></g></svg>